<?xml version="1.0" standalone="no"?>
<!DOCTYPE svg PUBLIC "-//W3C//DTD SVG 20010904//EN"
 "http://www.w3.org/TR/2001/REC-SVG-20010904/DTD/svg10.dtd">
<svg version="1.0" xmlns="http://www.w3.org/2000/svg"
 width="260.000000pt" height="260.000000pt" viewBox="0 0 260.000000 260.000000"
 preserveAspectRatio="xMidYMid meet">
<metadata>
Created by potrace 1.11, written by Peter Selinger 2001-2013
</metadata>
<g transform="translate(0.000000,260.000000) scale(0.100000,-0.100000)"
fill="#000000" stroke="none">
<path d="M1240 2256 c-172 -36 -327 -139 -437 -291 l-22 -30 -1 143 0 142
-160 0 -160 0 0 -955 0 -955 160 0 159 0 4 618 c3 555 5 623 21 676 71 238
237 376 473 393 193 14 338 -57 406 -198 62 -127 61 -113 65 -831 l3 -658 155
0 154 0 0 623 c0 763 -6 826 -96 1013 -72 151 -196 254 -359 299 -82 22 -282
28 -365 11z"/>
</g>
</svg>
